<?xml version="1.0" standalone="no"?>
    <!DOCTYPE svg PUBLIC "-//W3C//DTD SVG 1.1//EN" "http://www.w3.org/Graphics/SVG/1.1/DTD/svg11.dtd">
    <svg 
        t="1658386363496" 
        class="icon" 
        viewBox="0 0 1024 1024" 
        version="1.1" 
        xmlns="http://www.w3.org/2000/svg" 
        p-id="1414" 
        width="32" 
        height="32" 
        xmlns:xlink="http://www.w3.org/1999/xlink">
        <defs>
            <style type="text/css">@font-face { font-family: feedback-iconfont; src: url("//at.alicdn.com/t/font_1031158_u69w8yhxdu.woff2?t=1630033759944") format("woff2"), url("//at.alicdn.com/t/font_1031158_u69w8yhxdu.woff?t=1630033759944") format("woff"), url("//at.alicdn.com/t/font_1031158_u69w8yhxdu.ttf?t=1630033759944") format("truetype"); }
            </style>
        </defs>
        <path 
            d="M955.976575 533.675016l-166.175122 166.644747a28.148621 28.148621 0 0 1-39.845904 0c-10.945883-11.018133-10.945883-28.900021 0-39.954279l119.465463-119.826713H160.575743l119.465462 119.826713c11.018133 11.018133 11.018133 28.900021 0 39.954279a28.148621 28.148621 0 0 1-39.845904 0l-166.102872-166.644747c-5.888379-5.852254-8.381006-13.691385-8.019756-21.422141-0.36125-7.658506 2.131377-15.461511 8.019756-21.34989l166.102872-166.608622a28.148621 28.148621 0 0 1 39.845904 0c11.018133 11.018133 11.018133 28.900021 0 39.954279L160.575743 484.075355h708.845269l-119.465463-119.826713c-10.945883-11.018133-10.945883-28.900021 0-39.954279a28.148621 28.148621 0 0 1 39.845904 0l166.175122 166.608622c5.888379 5.888379 8.381006 13.691385 7.911381 21.34989 0.4335 7.730756-2.059127 15.569886-7.911381 21.422141z" 
            fill="#00A0E9" 
            p-id="1415">
        </path>
    </svg>