<?xml version="1.0" standalone="no"?><!DOCTYPE svg PUBLIC "-//W3C//DTD SVG 1.1//EN" "http://www.w3.org/Graphics/SVG/1.1/DTD/svg11.dtd"><svg t="1658817911881" class="icon" viewBox="0 0 1024 1024" version="1.1" xmlns="http://www.w3.org/2000/svg" p-id="3211" width="32" height="32" xmlns:xlink="http://www.w3.org/1999/xlink"><defs><style type="text/css">@font-face { font-family: feedback-iconfont; src: url("//at.alicdn.com/t/font_1031158_u69w8yhxdu.woff2?t=1630033759944") format("woff2"), url("//at.alicdn.com/t/font_1031158_u69w8yhxdu.woff?t=1630033759944") format("woff"), url("//at.alicdn.com/t/font_1031158_u69w8yhxdu.ttf?t=1630033759944") format("truetype"); }
</style></defs><path d="M256 158.208v709.734c0 30.157-22.938 54.58-51.2 54.58s-51.2-24.423-51.2-54.58V158.157c0-30.157 22.938-54.58 51.2-54.58S256 128 256 158.158z m307.2 0v709.734c0 30.157-22.938 54.58-51.2 54.58s-51.2-24.423-51.2-54.58V158.157c0-30.157 22.938-54.58 51.2-54.58s51.2 24.423 51.2 54.58z m307.2 0v709.734c0 30.157-22.938 54.58-51.2 54.58s-51.2-24.423-51.2-54.58V158.157c0-30.157 22.938-54.58 51.2-54.58s51.2 24.423 51.2 54.58z" p-id="3212" fill="#1296db"></path></svg>